<?xml version="1.0" encoding="utf-8"?>
<!-- Generator: Adobe Illustrator 19.0.0, SVG Export Plug-In . SVG Version: 6.00 Build 0)  -->
<svg version="1.1" id="Layer_1" xmlns="http://www.w3.org/2000/svg" xmlns:xlink="http://www.w3.org/1999/xlink" x="0px" y="0px"
	 viewBox="0 0 328.6 303.8" style="enable-background:new 0 0 328.6 303.8;" xml:space="preserve">
<style type="text/css">
	.Arched_x0020_Green{fill:url(#SVGID_1_);stroke:#FFFFFF;stroke-width:0.25;stroke-miterlimit:1;}
	.st0{fill-rule:evenodd;clip-rule:evenodd;fill:#1F5F8D;stroke:#FFFFFF;stroke-width:32;}
	.st1{fill:#1F5F8D;}
	.st2{fill:#D22333;}
	.st3{fill:#F5F5F5;}
	.st4{fill-rule:evenodd;clip-rule:evenodd;fill:#1F5F8D;}
	.st5{fill:#FFFFFF;}
</style>
<linearGradient id="SVGID_1_" gradientUnits="userSpaceOnUse" x1="1148.1781" y1="-1576.6362" x2="1148.8851" y2="-1577.3433">
	<stop  offset="0" style="stop-color:#20AC4B"/>
	<stop  offset="0.9831" style="stop-color:#19361A"/>
</linearGradient>
<g>
	<path class="st0" d="M269.4,109.2V48.5c0-5.8-0.8-9.9-3-13.5c-2.2-3.6-5.1-6-9.5-8.7c-4.3-2.6-19.6-5.2-37.7-7.1
		c-18.2-1.9-39.7-3.2-54.9-3.2c-15.2,0-36.6,1.4-54.9,3.2c-18,1.9-33.4,4.5-37.7,7.1c-4.4,2.7-7.3,5-9.5,8.7c-2.2,3.6-3,7.7-3,13.5
		v60.7H16v61l41.5,46.2l-15.2-46.2h16.9v9.8c0,2.1,0.4,5,0.8,7.8c0.7,4.4,1.9,9.2,2.1,10c0.1,0.2,0.1,0.3,0.2,0.5
		c2.6,7.4,10.1,18.3,20.8,30.2c9.6,10.5,21.9,22.1,35.9,32.9c14.8,11.4,24,17.8,30.2,21.3c7.6,4.4,11.7,5.2,15,5.2
		c3.3,0,7.5-0.8,15-5.2c6.2-3.6,15.4-10,30.2-21.3c14-10.8,26.3-22.4,35.9-32.9c11-12.1,18.5-23.2,21-30.7l0,0
		c0.3-0.8,1.4-5.5,2.1-10c0.5-2.8,0.8-5.7,0.8-7.8v-9.8h16.9l-15.1,46.2l41.5-46.2v-61H269.4z M75.7,48.5c0-2.8,0.2-4.3,0.6-5.1
		c0.5-0.8,1.8-1.7,4-3.1c2.1-1.3,14.9-3.1,30.7-4.8c17.5-1.8,38.3-3.1,53.2-3.1c14.9,0,35.7,1.3,53.2,3.1
		c15.8,1.6,28.6,3.5,30.7,4.8c2.2,1.4,3.6,2.3,4,3.1c0.5,0.8,0.6,2.3,0.6,5.1v60.7H75.7V48.5z M252.9,180c0,1.3-0.2,3.2-0.6,5.1
		c-0.6,3.7-1.4,7-1.5,7.5l0,0l0,0c-1.8,5.4-8.1,14.3-17.6,24.8c-8.9,9.8-20.5,20.7-33.7,30.9c-14.1,10.9-22.8,16.9-28.4,20.1
		c-4.3,2.5-5.8,2.9-6.8,2.9c-1,0-2.5-0.5-6.8-2.9c-5.6-3.3-14.3-9.3-28.4-20.1c-13.3-10.3-24.8-21.1-33.8-30.9
		c-9.4-10.3-15.6-19.2-17.5-24.6l-0.1-0.3c-0.1-0.4-0.9-3.8-1.5-7.5c-0.3-1.9-0.6-3.9-0.6-5.1v-9.8h177.2V180z"/>
	<path class="st1" d="M247.3,104.4V52.7c0-2.6-0.2-4.1-0.6-4.8c-0.4-0.7-1.7-1.6-3.8-2.9c-2-1.2-13.9-3-28.8-4.5
		c-16.4-1.7-35.9-2.9-49.9-2.9c-14,0-33.5,1.2-49.9,2.9c-14.9,1.5-26.8,3.3-28.8,4.5c-2.1,1.3-3.3,2.2-3.8,2.9
		c-0.4,0.7-0.6,2.2-0.6,4.8v51.7H247.3z"/>
	<path class="st2" d="M228.5,123.4c-21.5-0.5-43,0-64.5,0.2c-27.8,0.2-55.6-0.4-83.4,0.3v54.7c0,1.2,0.2,3,0.5,4.8
		c0.6,3.5,1.3,6.7,1.4,7.1l0.1,0.3c1.8,5.1,7.7,13.5,16.5,23.2c8.4,9.3,19.4,19.5,31.9,29.2c13.3,10.3,21.5,15.9,26.8,19
		c4,2.3,5.5,2.8,6.4,2.8c0.9,0,2.4-0.4,6.4-2.8c5.3-3.1,13.6-8.8,26.9-19c12.5-9.7,23.5-20,31.9-29.2c9-9.9,14.9-18.4,16.6-23.5l0,0
		l0,0c0.1-0.4,0.8-3.6,1.4-7.1c0.3-1.8,0.5-3.6,0.5-4.8v-55C241.5,123.6,235,123.6,228.5,123.4z"/>
	<rect x="78.2" y="159.4" class="st3" width="172.6" height="14.7"/>
	<polygon class="st3" points="96.5,215.7 104.8,222.6 104.8,110.9 96.5,110.9 	"/>
	<polygon class="st3" points="121.9,239.5 130.2,245 130.2,110.9 121.9,110.9 	"/>
	<polygon class="st3" points="147.3,259 155.6,263.1 155.6,110.9 147.3,110.9 	"/>
	<polygon class="st3" points="172.7,263.1 181,259 181,110.9 172.7,110.9 	"/>
	<polygon class="st3" points="198.1,245 206.4,240.8 206.4,110.9 198.1,110.9 	"/>
	<polygon class="st3" points="223.5,221.2 231.8,217.1 231.8,110.9 223.5,110.9 	"/>
	<path class="st4" d="M269.4,109.2V48.5c0-5.8-0.8-9.9-3-13.5c-2.2-3.6-5.1-6-9.5-8.7c-4.3-2.6-19.6-5.2-37.7-7.1
		c-18.2-1.9-39.7-3.2-54.9-3.2c-15.2,0-36.6,1.4-54.9,3.2c-18,1.9-33.4,4.5-37.7,7.1c-4.4,2.7-7.3,5-9.5,8.7c-2.2,3.6-3,7.7-3,13.5
		v60.7H16v61l41.5,46.2l-15.2-46.2h16.9v9.8c0,2.1,0.4,5,0.8,7.8c0.7,4.4,1.9,9.2,2.1,10c0.1,0.2,0.1,0.3,0.2,0.5
		c2.6,7.4,10.1,18.3,20.8,30.2c9.6,10.5,21.9,22.1,35.9,32.9c14.8,11.4,24,17.8,30.2,21.3c7.6,4.4,11.7,5.2,15,5.2
		c3.3,0,7.5-0.8,15-5.2c6.2-3.6,15.4-10,30.2-21.3c14-10.8,26.3-22.4,35.9-32.9c11-12.1,18.5-23.2,21-30.7l0,0
		c0.3-0.8,1.4-5.5,2.1-10c0.5-2.8,0.8-5.7,0.8-7.8v-9.8h16.9l-15.1,46.2l41.5-46.2v-61H269.4z M75.7,48.5c0-2.8,0.2-4.3,0.6-5.1
		c0.5-0.8,1.8-1.7,4-3.1c2.1-1.3,14.9-3.1,30.7-4.8c17.5-1.8,38.3-3.1,53.2-3.1c14.9,0,35.7,1.3,53.2,3.1
		c15.8,1.6,28.6,3.5,30.7,4.8c2.2,1.4,3.6,2.3,4,3.1c0.5,0.8,0.6,2.3,0.6,5.1v60.7H75.7V48.5z M252.9,180c0,1.3-0.2,3.2-0.6,5.1
		c-0.6,3.7-1.4,7-1.5,7.5l0,0l0,0c-1.8,5.4-8.1,14.3-17.6,24.8c-8.9,9.8-20.5,20.7-33.7,30.9c-14.1,10.9-22.8,16.9-28.4,20.1
		c-4.3,2.5-5.8,2.9-6.8,2.9c-1,0-2.5-0.5-6.8-2.9c-5.6-3.3-14.3-9.3-28.4-20.1c-13.3-10.3-24.8-21.1-33.8-30.9
		c-9.4-10.3-15.6-19.2-17.5-24.6l-0.1-0.3c-0.1-0.4-0.9-3.8-1.5-7.5c-0.3-1.9-0.6-3.9-0.6-5.1v-9.8h177.2V180z"/>
	<g>
		<g>
			<path class="st3" d="M23.9,136.4c0-8.1,6.2-15,15.5-15c9.4,0,15.5,6.9,15.5,15v20.7h-6.5v-7.2H30.4v7.2h-6.5V136.4z M48.5,143.8
				v-6c0-6.4-4-10.2-9.1-10.2c-5,0-9.1,3.8-9.1,10.2v6H48.5z"/>
			<path class="st3" d="M59.9,122.2h16.6c7.8,0,12.6,5.1,12.6,12c0,5.1-3.5,9.1-8.2,10.5l8.7,12.5h-8.1l-7.3-11h-7.9v11h-6.5V122.2z
				 M76.1,140c4.6,0,6.6-2.7,6.6-5.8c0-3.1-2.1-5.8-6.6-5.8h-9.7V140H76.1z"/>
			<path class="st3" d="M93.1,132.2c0-5.7,4.6-10.6,11.5-10.6c3.6,0,6.7,1.3,8.7,3.4c2.1-2.1,5.1-3.4,8.7-3.4
				c7,0,11.4,4.8,11.4,10.6v25H127v-24.1c0-4-2-6.1-5.1-6.1c-3.1,0-5.5,2.2-5.5,6.1v24.1h-6.4v-24.1c0-4-2.4-6.1-5.5-6.1
				c-3.1,0-5.1,2.2-5.1,6.1v24.1h-6.3V132.2z"/>
			<path class="st3" d="M139.9,136.4c0-8.1,6.2-15,15.5-15c9.4,0,15.5,6.9,15.5,15v20.7h-6.5v-7.2h-18.1v7.2h-6.5V136.4z
				 M164.5,143.8v-6c0-6.4-4-10.2-9.1-10.2c-5,0-9.1,3.8-9.1,10.2v6H164.5z"/>
			<path class="st3" d="M184.6,128.3h-10.2v-6.1h26.9v6.1h-10.2v28.8h-6.5V128.3z"/>
			<path class="st3" d="M204.6,122.2h6.5v19.3c0,6.4,4.1,10.2,9.1,10.2c5.1,0,9.1-3.8,9.1-10.2v-19.3h6.5v20.7c0,8.1-6.2,15-15.5,15
				c-9.4,0-15.5-6.9-15.5-15V122.2z"/>
			<path class="st3" d="M240.7,122.2h16.6c7.8,0,12.6,5.1,12.6,12c0,5.1-3.5,9.1-8.2,10.5l8.7,12.5h-8.1l-7.3-11h-7.9v11h-6.5V122.2
				z M256.9,140c4.6,0,6.6-2.7,6.6-5.8c0-3.1-2.1-5.8-6.6-5.8h-9.7V140H256.9z"/>
			<path class="st3" d="M274,136.4c0-8.1,6.2-15,15.5-15c9.4,0,15.5,6.9,15.5,15v20.7h-6.5v-7.2h-18.1v7.2H274V136.4z M298.6,143.8
				v-6c0-6.4-4-10.2-9.1-10.2c-5,0-9.1,3.8-9.1,10.2v6H298.6z"/>
		</g>
	</g>
	<g>
		<path class="st5" d="M115.3,47.7h8.7v26.1c0,8.7,7.7,13.9,15.5,13.9c7.9,0,15.5-5.2,15.5-13.9V47.7h8.7v28
			c0,10.9-9.6,20.3-24.2,20.3c-14.5,0-24.2-9.3-24.2-20.3V47.7z"/>
		<path class="st5" d="M175,82.5c4,2.6,10.1,5.1,15.8,5.1c4.2,0,11.3-1.1,11.3-5.7c0-9.8-29.2-6.4-29.2-21.8c0-9,9.3-13.3,18.4-13.3
			c6.3,0,13.9,2.5,18.9,5.7l-4.8,7.3c-4.2-2-9.4-4.7-14.3-4.7c-3.2,0-8.4,1-8.4,4.4c0,8.9,29.2,5.6,29.2,22.2
			c0,9.7-11,14.2-20.8,14.2c-7.4,0-14.5-2.5-20.5-6L175,82.5z"/>
	</g>
</g>
</svg>
