<?xml version="1.0" encoding="utf-8"?>
<!-- Generator: Adobe Illustrator 19.0.0, SVG Export Plug-In . SVG Version: 6.00 Build 0)  -->
<svg version="1.1" id="Layer_1" xmlns="http://www.w3.org/2000/svg" xmlns:xlink="http://www.w3.org/1999/xlink" x="0px" y="0px"
	 viewBox="0 0 693.1 134.5" style="enable-background:new 0 0 693.1 134.5;" xml:space="preserve">
<style type="text/css">
	.Arched_x0020_Green{fill:url(#SVGID_1_);stroke:#FFFFFF;stroke-width:0.25;stroke-miterlimit:1;}
	.st0{fill:#00447C;}
	.st1{fill:#E31B23;}
</style>
<linearGradient id="SVGID_1_" gradientUnits="userSpaceOnUse" x1="-72.9146" y1="364.96" x2="-72.2075" y2="364.2529">
	<stop  offset="0" style="stop-color:#20AC4B"/>
	<stop  offset="0.9831" style="stop-color:#19361A"/>
</linearGradient>
<g>
	<g>
		<g>
			<path class="st0" d="M75.6,57.7c-1.1,5.2-4.1,9.6-9.1,13.3c-5,3.7-10.4,5.5-16.3,5.5H20.3l-3.3,15H0l12.7-60h47
				c5.9,0,10.6,1.8,14,5.5c3.4,3.7,4.5,8.1,3.4,13.2L75.6,57.7z M58.8,56.2l1-4.5c0.1-0.7,0.1-1.4,0-2c-0.2-0.6-0.5-1.2-0.9-1.7
				c-0.4-0.5-1-0.9-1.7-1.1c-0.7-0.3-1.4-0.4-2.2-0.4H26.7l-3.3,15h28.2c1.6,0,3.1-0.5,4.6-1.5C57.7,58.9,58.5,57.7,58.8,56.2z"/>
			<path class="st0" d="M148.5,57.7c-1.1,5.2-4.1,9.6-9.1,13.3c-5,3.7-10.4,5.5-16.3,5.5h-6.8l20.7,15h-24.8l-18.9-15l-3.3,15H72.9
				l12.8-60h47c5.9,0,10.6,1.8,14,5.5c3.4,3.7,4.5,8.1,3.4,13.2L148.5,57.7z M131.7,56.2l1-4.5c0.1-0.7,0.1-1.4,0-2
				c-0.2-0.6-0.5-1.2-0.9-1.7c-0.4-0.5-1-0.9-1.7-1.1c-0.7-0.3-1.4-0.4-2.2-0.4H99.6l-3.3,15h28.2c1.6,0,3.1-0.5,4.6-1.5
				C130.5,58.9,131.4,57.7,131.7,56.2z"/>
			<path class="st0" d="M218.2,72.7c-1.1,5.2-4.1,9.6-9.1,13.3c-5,3.7-10.4,5.5-16.3,5.5h-25.7c-5.9,0-10.5-1.8-13.9-5.5
				c-3.4-3.8-4.6-8.2-3.5-13.3l4.8-22.5c1.1-5.1,4.1-9.5,9.1-13.2c5-3.7,10.4-5.5,16.3-5.5h25.6c5.9,0,10.6,1.8,14,5.5
				c3.4,3.7,4.5,8.1,3.4,13.2L218.2,72.7z M201.4,71.2l4.2-19.5c0.1-0.7,0.1-1.4,0-2c-0.2-0.6-0.5-1.2-0.9-1.7
				c-0.4-0.5-1-0.8-1.7-1.1c-0.7-0.3-1.4-0.4-2.2-0.4h-22.2c-1.6,0-3.1,0.5-4.6,1.5c-1.4,1-2.3,2.3-2.5,3.7l-4.2,19.5
				c-0.3,1.5,0,2.7,1,3.7c1,1,2.3,1.5,3.9,1.5h22.2c1.6,0,3.1-0.5,4.5-1.5C200.2,73.9,201.1,72.7,201.4,71.2z"/>
			<path class="st0" d="M297.7,31.5l-37.6,60h-18.9l-12-60h18.8l6.2,43.2l24.6-43.2H297.7z"/>
			<path class="st0" d="M364.6,49.4c-1,4.8-3.9,9-8.5,12.6c-4.6,3.6-9.6,5.5-15,5.5h-31.6l-1,4.5c-0.3,1.2,0,2.2,0.9,3.2
				c0.8,0.9,1.9,1.4,3.3,1.4h41.9l-3.3,15h-42.8c-5.9,0-10.5-1.8-13.9-5.5c-3.4-3.8-4.6-8.2-3.5-13.3l4.8-22.5
				c1.1-5.1,4.1-9.5,9.1-13.2c5-3.7,10.4-5.5,16.3-5.5h27.3c5.4,0,9.6,1.8,12.7,5.5C364.6,40.5,365.6,44.7,364.6,49.4z M347.2,50.9
				c0.2-1.3,0-2.4-0.8-3.2c-0.7-0.9-1.8-1.2-3.3-1.2h-24c-1.4,0-2.7,0.4-3.9,1.4c-1.2,0.9-2,1.9-2.2,3.1l-1,4.5h29.1
				c1.5,0,2.8-0.4,3.9-1.3C346.2,53.3,346.9,52.2,347.2,50.9z"/>
		</g>
		<g>
			<path class="st0" d="M581.6,93.2h-48.8c-5.3,0-9.6-1.8-12.7-5.4c-3.1-3.6-4.2-7.9-3.2-12.6c1-4.7,3.8-8.9,8.5-12.5
				c4.6-3.6,9.6-5.5,15-5.5h31.6l1-4.5c0.2-1.3-0.1-2.3-0.9-3.1c-0.8-0.9-1.9-1.4-3.3-1.4h-41.9l3.1-15H573c5.9,0,10.6,1.8,14,5.5
				c3.4,3.7,4.5,8,3.4,13.2L581.6,93.2z M567.8,78.2l1.8-9h-29.1c-1.4,0-2.7,0.4-3.9,1.4c-1.2,0.9-1.9,1.9-2.2,3.1
				c-0.3,1.2,0,2.2,0.9,3.2c0.8,0.9,1.9,1.4,3.3,1.4H567.8z"/>
			<path class="st0" d="M652.4,93.2h-21.8L622,75.7l-16.2,17.5H584l29.7-30l-17-30h21.8l8.8,17.4l16-17.4h21.9l-29.6,30L652.4,93.2z
				"/>
		</g>
		<path class="st1" d="M511.3,96.3c-3.7-5.7-9.9-16.4-16.5-33.1c-5.8-14.9-8.5-29.2-9.6-37.4c2.1-2.7,3.3-6.1,3.3-9.8
			c0-8.9-7.2-16-16-16s-16,7.2-16,16c0,3.5,1.2,6.8,3.1,9.5c-1.1,5.3-4,17-11.3,32.9c-6.1,13.2-11.2,21.8-14.3,26.6
			c-0.6-0.1-1.1-0.1-1.7-0.1c-2,0-3.9,0.4-5.7,1.1c-3.5-3-9.9-9.1-17.2-18.8c-5.8-7.7-9.6-15.2-11.7-20c0.5-1.3,0.8-2.6,0.8-4.1
			c0-6-4.9-11-10.9-11c-6,0-10.9,4.9-10.9,11c0,3.5,1.7,6.7,4.3,8.7c-0.2,3-0.9,7.8-3.2,15c-2.2,7-4,11.7-5.3,14.6
			c-4,0.8-7,4.4-7,8.6c0,4.8,3.9,8.8,8.8,8.8c4.9,0,8.8-3.9,8.8-8.8c0-2.9-1.4-5.4-3.5-7c0.2-3.2,0.9-7.9,2.7-14.5
			c1.8-6.8,3.8-11.5,5.3-14.4c0,0,0,0,0,0c0.9,0,1.8-0.1,2.6-0.3c3.8,3.3,9.4,8.8,15.1,17.2c7.3,10.8,10.6,20,11.9,24.7
			c-0.6,1.7-1,3.5-1,5.4c0,8.8,7.2,16,16,16c8.8,0,16-7.2,16-16c0-4.7-2-8.9-5.2-11.8c1.7-6.2,4.7-15.5,9.8-27.6
			c5.8-13.8,12.7-24.7,16.2-29.9c1.1,0.2,2.2,0.4,3.4,0.4c0.1,0,0.3,0,0.4,0c3.4,6,8.8,16.7,14.3,32.8c6.1,18.1,8.4,31,9.2,37.7
			c-3.1,3.4-5,7.9-5,12.8c0,10.5,8.6,19.1,19.1,19.1c10.5,0,19.1-8.6,19.1-19.1C529.7,105,521.5,96.7,511.3,96.3z"/>
		<g>
			<path class="st0" d="M674.4,27.5V16.8h-4v-1.4h9.6v1.4h-4v10.7H674.4z"/>
			<path class="st0" d="M681.6,27.5V15.4h2.4l2.9,8.6c0.3,0.8,0.5,1.4,0.6,1.8c0.1-0.4,0.3-1.1,0.6-1.9l2.9-8.4h2.2v12.1h-1.5V17.3
				l-3.5,10.1h-1.4l-3.5-10.3v10.3H681.6z"/>
		</g>
	</g>
	<g>
		<path class="st0" d="M12.3,117.7c-0.7,0.4-2.2,0.7-4,0.7c-4.3,0-7.5-2.7-7.5-7.7c0-4.8,3.2-8,7.9-8c1.9,0,3.1,0.4,3.6,0.7
			l-0.5,1.6c-0.7-0.3-1.8-0.6-3-0.6c-3.6,0-5.9,2.3-5.9,6.3c0,3.8,2.1,6.1,5.8,6.1c1.2,0,2.4-0.3,3.2-0.6L12.3,117.7z"/>
		<path class="st0" d="M25.6,113.1c0,2.7,1.7,3.8,3.7,3.8c1.4,0,2.3-0.2,3-0.6l0.4,1.4c-0.7,0.3-1.9,0.7-3.7,0.7
			c-3.4,0-5.4-2.2-5.4-5.5c0-3.3,1.9-5.9,5.1-5.9c3.6,0,4.5,3.1,4.5,5.1c0,0.4,0,0.7-0.1,0.9H25.6z M31.4,111.7
			c0-1.2-0.5-3.2-2.7-3.2c-2,0-2.9,1.8-3,3.2H31.4z"/>
		<path class="st0" d="M45.8,110.7c0-1.3,0-2.4-0.1-3.4h1.7l0.1,2.2h0.1c0.5-1.5,1.7-2.4,3-2.4c0.2,0,0.4,0,0.5,0v1.9
			c-0.2,0-0.4,0-0.7,0c-1.4,0-2.4,1-2.7,2.5c0,0.3-0.1,0.6-0.1,0.9v5.8h-2V110.7z"/>
		<path class="st0" d="M70.7,115.6c0,0.9,0,1.9,0.2,2.6h-1.8l-0.2-1.4h-0.1c-0.6,0.9-1.8,1.6-3.3,1.6c-2.2,0-3.3-1.5-3.3-3.1
			c0-2.6,2.4-4.1,6.6-4.1V111c0-0.9-0.3-2.5-2.5-2.5c-1,0-2.1,0.3-2.9,0.8l-0.4-1.3c0.9-0.6,2.2-0.9,3.6-0.9c3.3,0,4.2,2.3,4.2,4.5
			V115.6z M68.8,112.6c-2.2-0.1-4.6,0.3-4.6,2.4c0,1.3,0.9,1.9,1.8,1.9c1.4,0,2.4-0.9,2.7-1.8c0.1-0.2,0.1-0.5,0.1-0.6V112.6z"/>
		<path class="st0" d="M83.9,110.2c0-1.1,0-2.1-0.1-2.9h1.7l0.1,1.8h0.1c0.6-1,1.6-2,3.4-2c1.5,0,2.6,0.9,3.1,2.2h0
			c0.3-0.6,0.8-1.1,1.2-1.4c0.6-0.5,1.4-0.8,2.4-0.8c1.5,0,3.6,0.9,3.6,4.7v6.4h-1.9V112c0-2.1-0.8-3.4-2.4-3.4
			c-1.2,0-2,0.8-2.4,1.8c-0.1,0.3-0.2,0.6-0.2,1v6.7h-1.9v-6.5c0-1.7-0.8-3-2.3-3c-1.2,0-2.1,1-2.5,2c-0.1,0.3-0.2,0.7-0.2,1v6.6
			h-1.9V110.2z"/>
		<path class="st0" d="M114.9,104.2c0,0.7-0.5,1.2-1.3,1.2c-0.7,0-1.2-0.5-1.2-1.2c0-0.7,0.5-1.2,1.2-1.2
			C114.4,103,114.9,103.5,114.9,104.2z M112.7,118.2v-10.9h2v10.9H112.7z"/>
		<path class="st0" d="M135.7,117.8c-0.5,0.3-1.7,0.6-3.1,0.6c-3.3,0-5.4-2.2-5.4-5.6c0-3.4,2.3-5.8,5.9-5.8c1.2,0,2.2,0.3,2.7,0.6
			l-0.4,1.5c-0.5-0.2-1.2-0.5-2.3-0.5c-2.5,0-3.9,1.9-3.9,4.1c0,2.5,1.6,4.1,3.8,4.1c1.1,0,1.9-0.3,2.4-0.5L135.7,117.8z"/>
		<path class="st0" d="M162.9,118.2V103h2.2l4.8,7.7c1.1,1.8,2,3.4,2.7,4.9l0.1,0c-0.2-2-0.2-3.9-0.2-6.2V103h1.8v15.2h-2l-4.8-7.7
			c-1.1-1.7-2.1-3.4-2.8-5.1l-0.1,0c0.1,1.9,0.1,3.7,0.1,6.3v6.5H162.9z"/>
		<path class="st0" d="M195.3,115.6c0,0.9,0,1.9,0.2,2.6h-1.8l-0.2-1.4h-0.1c-0.6,0.9-1.8,1.6-3.3,1.6c-2.2,0-3.3-1.5-3.3-3.1
			c0-2.6,2.4-4.1,6.6-4.1V111c0-0.9-0.3-2.5-2.5-2.5c-1,0-2.1,0.3-2.9,0.8l-0.5-1.3c0.9-0.6,2.2-0.9,3.6-0.9c3.3,0,4.1,2.3,4.1,4.5
			V115.6z M193.4,112.6c-2.2-0.1-4.6,0.3-4.6,2.4c0,1.3,0.9,1.9,1.8,1.9c1.4,0,2.4-0.9,2.7-1.8c0.1-0.2,0.1-0.5,0.1-0.6V112.6z"/>
		<path class="st0" d="M208.5,110.2c0-1.1,0-2.1-0.1-2.9h1.8l0.1,1.8h0c0.5-1,1.8-2,3.6-2c1.5,0,3.9,0.9,3.9,4.6v6.5h-2v-6.3
			c0-1.8-0.7-3.2-2.5-3.2c-1.3,0-2.3,0.9-2.7,2c-0.1,0.3-0.1,0.6-0.1,0.9v6.6h-2V110.2z"/>
		<path class="st0" d="M240.9,112.6c0,4-2.8,5.8-5.4,5.8c-2.9,0-5.2-2.2-5.2-5.6c0-3.6,2.4-5.8,5.4-5.8
			C238.8,107,240.9,109.3,240.9,112.6z M232.3,112.8c0,2.4,1.3,4.2,3.3,4.2c1.9,0,3.3-1.8,3.3-4.2c0-1.8-0.9-4.2-3.3-4.2
			C233.3,108.5,232.3,110.7,232.3,112.8z"/>
		<path class="st0" d="M278.9,117.7c-0.7,0.4-2.2,0.7-4,0.7c-4.3,0-7.5-2.7-7.5-7.7c0-4.8,3.2-8,7.9-8c1.9,0,3.1,0.4,3.6,0.7
			l-0.5,1.6c-0.7-0.3-1.8-0.6-3-0.6c-3.6,0-5.9,2.3-5.9,6.3c0,3.8,2.1,6.1,5.8,6.1c1.2,0,2.4-0.3,3.2-0.6L278.9,117.7z"/>
		<path class="st0" d="M300.9,112.6c0,4-2.8,5.8-5.4,5.8c-2.9,0-5.2-2.2-5.2-5.6c0-3.6,2.4-5.8,5.4-5.8
			C298.8,107,300.9,109.3,300.9,112.6z M292.3,112.8c0,2.4,1.4,4.2,3.3,4.2c1.9,0,3.3-1.8,3.3-4.2c0-1.8-0.9-4.2-3.3-4.2
			C293.3,108.5,292.3,110.7,292.3,112.8z"/>
		<path class="st0" d="M321.1,115.6c0,0.9,0,1.9,0.2,2.6h-1.8l-0.2-1.4h-0.1c-0.6,0.9-1.8,1.6-3.3,1.6c-2.2,0-3.3-1.5-3.3-3.1
			c0-2.6,2.3-4.1,6.6-4.1V111c0-0.9-0.2-2.5-2.5-2.5c-1,0-2.1,0.3-2.9,0.8l-0.5-1.3c0.9-0.6,2.2-0.9,3.6-0.9c3.3,0,4.1,2.3,4.1,4.5
			V115.6z M319.2,112.6c-2.2-0.1-4.6,0.3-4.6,2.4c0,1.3,0.9,1.9,1.8,1.9c1.4,0,2.4-0.9,2.7-1.8c0.1-0.2,0.1-0.5,0.1-0.6V112.6z"/>
		<path class="st0" d="M336.6,104.7v2.6h2.8v1.5h-2.8v5.9c0,1.4,0.4,2.1,1.5,2.1c0.5,0,0.9,0,1.1-0.1l0.1,1.5
			c-0.4,0.1-1,0.3-1.8,0.3c-0.9,0-1.7-0.3-2.1-0.8c-0.5-0.6-0.8-1.6-0.8-2.9v-6h-1.7v-1.5h1.7v-2L336.6,104.7z"/>
		<path class="st0" d="M353.9,104.2c0,0.7-0.5,1.2-1.3,1.2c-0.7,0-1.2-0.5-1.2-1.2c0-0.7,0.5-1.2,1.2-1.2
			C353.4,103,353.9,103.5,353.9,104.2z M351.6,118.2v-10.9h2v10.9H351.6z"/>
		<path class="st0" d="M366.9,110.2c0-1.1,0-2.1-0.1-2.9h1.8l0.1,1.8h0c0.5-1,1.8-2,3.6-2c1.5,0,3.9,0.9,3.9,4.6v6.5h-2v-6.3
			c0-1.8-0.7-3.2-2.5-3.2c-1.3,0-2.3,0.9-2.7,2c-0.1,0.3-0.1,0.6-0.1,0.9v6.6h-2V110.2z"/>
		<path class="st0" d="M398.8,116.6c0,2.5-0.5,4-1.6,5c-1.1,1-2.6,1.3-4,1.3c-1.3,0-2.7-0.3-3.6-0.9l0.5-1.5
			c0.7,0.5,1.8,0.9,3.2,0.9c2,0,3.5-1.1,3.5-3.8v-1.2h-0.1c-0.6,1-1.8,1.8-3.5,1.8c-2.7,0-4.6-2.3-4.6-5.3c0-3.7,2.4-5.8,4.9-5.8
			c1.9,0,2.9,1,3.4,1.9h0l0.1-1.6h1.8c-0.1,0.8-0.1,1.7-0.1,3V116.6z M396.8,111.6c0-0.3,0-0.6-0.1-0.9c-0.3-1.2-1.3-2.1-2.8-2.1
			c-1.9,0-3.3,1.6-3.3,4.1c0,2.2,1.1,3.9,3.2,3.9c1.2,0,2.4-0.8,2.7-2c0.1-0.3,0.2-0.7,0.2-1V111.6z"/>
	</g>
</g>
</svg>
