<?xml version="1.0" encoding="utf-8"?>
<!-- Generator: Adobe Illustrator 19.0.0, SVG Export Plug-In . SVG Version: 6.00 Build 0)  -->
<svg version="1.1" id="Layer_1" xmlns="http://www.w3.org/2000/svg" xmlns:xlink="http://www.w3.org/1999/xlink" x="0px" y="0px"
	 viewBox="0 0 406.4 245.5" style="enable-background:new 0 0 406.4 245.5;" xml:space="preserve">
<style type="text/css">
	.Arched_x0020_Green{fill:url(#SVGID_1_);stroke:#FFFFFF;stroke-width:0.25;stroke-miterlimit:1;}
	.st0{fill:#E31B23;}
	.st1{fill:#00447C;}
	.st2{fill:#FFFFFF;}
</style>
<linearGradient id="SVGID_1_" gradientUnits="userSpaceOnUse" x1="-215.4985" y1="420.6934" x2="-214.7914" y2="419.9863">
	<stop  offset="0" style="stop-color:#20AC4B"/>
	<stop  offset="0.9831" style="stop-color:#19361A"/>
</linearGradient>
<g>
	<g>
		<g>
			<path class="st0" d="M386.8,1.2l-0.1,2.5c-1.5-0.1-3-0.2-4.4-0.2c0,1.5,0,3.1,0,4.9c0,2.8,0,5.5,0.1,8h-3.3
				c0.1-2.5,0.1-5.1,0.1-8c0-1.8,0-3.4,0-4.9c-1.1,0-2.6,0.1-4.5,0.2l0.1-2.5H386.8z"/>
			<path class="st0" d="M406.4,16.5H403c0-1.3-0.1-3.6-0.2-6.7c-0.1-3.2-0.3-5.1-0.3-5.9h-0.2c-0.1,0.5-0.3,1.3-0.6,2.6
				c-0.3,1.3-1,3.1-1.9,5.6c-0.9,2.4-1.4,3.9-1.4,4.4h-2.6c0-0.5-0.5-2-1.3-4.5c-0.9-2.5-1.5-4.2-1.8-5.2c-0.3-1-0.5-2-0.6-2.9h-0.2
				c0,1-0.1,3.1-0.3,6.3c-0.2,3.2-0.3,5.3-0.3,6.3h-3.1c0-0.2,0.3-2.6,0.9-7c0.6-4.5,0.8-7.2,0.8-8.2h4.5c0,0.9,0.5,2.8,1.4,5.8
				c1,3,1.5,4.9,1.5,5.7h0.2c0-0.8,0.5-2.7,1.6-5.7c1.1-3,1.6-4.9,1.6-5.8h4.5c0,1.6,0.2,4.5,0.5,8.7
				C406.2,14,406.4,16.2,406.4,16.5z"/>
		</g>
		<g>
			<path class="st1" d="M345,124c-17.5,0-32.6,10.5-39.4,25.6l0,0c0,0-6.3,11.3-12.4,15c-3.4,2-5.1,0.9-5.8-0.1
				c-1.4-22.5-20.2-40.4-43-40.4c-22.9,0-41.6,17.9-43,40.3c-0.7,1-2.4,2.1-5.8,0.1c-5.9-3.5-11.9-14-12.4-14.9
				c-6.7-15.1-21.8-25.6-39.4-25.6c-17.6,0-32.8,10.6-39.5,25.8l0-0.3c0,0-6.3,11.3-12.4,15c-3.2,1.9-4.9,1-5.7,0
				C84.8,141.9,66,124,43.1,124C19.3,124,0,143.3,0,167.1c0,23.8,19.3,43.1,43.1,43.1c17.9,0,33.3-11,39.8-26.6
				c1.7-3.1,6.4-11.4,11.4-14.2c2.9-1.7,5-2.5,6.3-3c0,0.2,0,0.5,0,0.7c0,23.8,19.3,43.1,43.1,43.1c23.8,0,43.1-19.4,43.1-43.1
				c0-0.2,0-0.4,0-0.6c1.3,0.5,3.3,1.3,6.2,2.9c6.2,3.5,12,15.4,12,15.4l0-0.1c6.7,15,21.8,25.5,39.4,25.5
				c17.5,0,32.6-10.5,39.3-25.5l0,0.1c0,0,5.8-11.9,12-15.4c2.9-1.6,4.9-2.5,6.2-2.9c0,0.2,0,0.4,0,0.6c0,23.8,19.3,43.1,43.1,43.1
				c23.8,0,43.1-19.4,43.1-43.1C388.1,143.3,368.7,124,345,124z"/>
			<g>
				<path class="st0" d="M29.9,113.9c-4.8,0-9.6-0.6-14.3-1.8c-3.6-1-6.9-2.3-9.9-3.8c-2.5-1.5-3.8-2.8-4.3-3.6
					c-0.7-1.3-1-3.8-1-7.4c0-5.9,1-8.9,3-8.9c0.7,0,1.8,0.5,3.3,1.3l1.7,1C8.5,90.8,8.8,91,9,91.1l3,1.5c2.6,1.5,5.3,2.3,7.7,2.8
					c3.1,1,6.4,1.5,10.2,1.5c11,0,16.5-4.5,16.5-13.4c0-4.1-2.3-7.6-6.9-10.5c-1.8-1.1-4-2.3-7.1-3.8l-8.1-3.6
					c-3.1-1.5-5.9-2.8-8.1-4.3c-2.8-1.8-5.3-3.8-7.1-5.9c-2.2-2.5-4-4.9-5.1-8.1c-1.1-3.5-1.8-7.1-1.8-11.2
					c0-9.5,3.5-17.1,10.2-22.6C18.7,8.6,27,6.1,37,6.1c5.1,0,9.9,0.6,14.3,2.1c4.6,1.3,7.6,2.6,9.1,4.1c1.2,1.1,1.8,4,2,8.7
					c0,5.8-1,8.6-2.8,8.6c-0.2,0-0.5-0.2-1.1-0.3c-0.7-0.2-1.2-0.5-1.6-0.8L52,26.2c-2.1-1.2-4.3-2-6.4-2.5
					c-2.6-0.8-5.4-1.1-8.2-1.1c-4.4,0-7.9,1.1-10.4,3.3c-2.1,2-3.3,4.6-3.3,7.9c0,4.1,2.3,7.6,6.9,10.4c1.8,1.2,4.1,2.5,7.2,3.8
					l8.3,3.6c3.1,1.5,5.9,3,8.1,4.5c2.8,1.8,5.1,3.8,7.2,5.8c2.1,2.5,4,4.9,5.1,8.1c1.2,3.5,1.8,7.1,1.8,11
					c0,10.4-3.8,18.6-11.2,24.5C50,111.1,41,113.9,29.9,113.9z"/>
				<path class="st0" d="M115.6,111.7c-3.1,1.3-7.1,2-11.9,2c-15.6,0-23.4-8.6-23.4-25.7V51.3h-8.6c-2.1,0-3.1-2.8-3.1-8.3
					c0-5.4,1-8.2,3.1-8.2h8.6v-16c0-1.3,0.7-2.1,2.1-2.6c1.3-0.5,4-0.6,7.9-0.6c4.1,0,6.8,0.2,8.1,0.6c1.3,0.5,2,1.5,2,2.6v16h15.7
					c2.1,0,3.3,2.8,3.3,8.2c0,5.5-1,8.3-3.1,8.3h-15.8v33.6c0,7.9,2.8,11.9,8.6,11.9c1.5,0,3.3-0.3,5.1-1c0,0,0.3-0.2,1-0.3l0.8-0.3
					c0.3-0.1,0.7-0.1,1.2-0.1c0.8,0,1.3,0.5,1.6,1.3c0.5,1,0.7,2.9,0.7,5.9c0,3.5-0.3,5.8-1,7.1
					C117.9,110.4,116.9,111.2,115.6,111.7z"/>
				<path class="st0" d="M193.8,71.4c0,4.8-2.1,7.2-6.3,7.2h-43.7c0,6.4,1.5,11.2,4.6,14.7c3.1,3.5,8.2,5.2,15,5.2
					c3.1,0,6.3-0.1,9.4-0.6c2.5-0.5,4.4-1,6.9-1.8c0.8-0.2,1.5-0.3,2.6-0.8l2.1-0.7c1.6-0.5,2.6-0.8,3.1-0.8c1.8,0,2.6,2.2,2.6,6.6
					c0,4.1-0.5,6.8-1.7,7.9c-0.8,1-3.6,2.1-8.7,3.5l-8.4,1.5c-3.3,0.5-6.6,0.6-9.9,0.6c-25.5,0-38.4-13.1-38.4-39.6
					c0-12.7,3.3-22.9,9.7-30.3c6.4-7.4,15.3-11.1,26.9-11.1c11.5,0,20.1,3.3,25.9,10.1c5.4,6.1,8.1,14.3,8.1,25.1V71.4z M174.1,65.6
					c0.3-12.2-4.6-18.3-14.6-18.3c-5,0-8.7,1.8-11.5,5.4c-2.5,3.1-3.8,7.4-4,12.8H174.1z"/>
				<path class="st0" d="M244.4,54.1c-0.1,0-0.7-0.2-1.3-0.3c-0.7-0.2-2.3-0.3-4.8-0.8c-2.8-0.5-5.6-0.3-8.2,0.8
					c-2.8,1-4.9,3.1-6.4,6.6c-1.5,3.5-2.3,10.1-2.1,19.4v29.5c0,1.2-0.7,2-2.1,2.5c-1.6,0.5-4.3,0.8-8.1,0.8c-3.8,0-6.4-0.3-8.1-0.8
					c-1.3-0.5-2-1.3-2-2.5V37.6c0-2.1,2.8-3.3,8.6-3.3c3.3,0,5.6,0.3,6.9,0.8c1.2,0.5,1.8,1.3,1.8,2.5l0.7,7.3l4.6-4.9
					c2-2,3.6-3.3,4.8-4.1c2.8-1.8,5.8-2.8,8.9-2.8c1.3,0,3,0.2,4.8,0.5c2,0.5,3.1,1,3.6,1.5c0.7,0.7,1,1.3,1.2,2.1
					c0.2,1.2,0.2,3.3,0.2,7.1c0,4.1-0.2,6.8-0.7,7.9C246.3,53.4,245.6,54.1,244.4,54.1z"/>
				<path class="st0" d="M266.8,24.1c-4.6,0-7.8-0.8-9.2-2.3c-1.5-1.5-2.3-4.3-2.3-8.1c0-4.1,0.8-6.9,2.5-8.4
					c1.6-1.7,4.8-2.5,9.2-2.5c4.5,0,7.4,0.8,9.2,2.3c1.7,1.5,2.5,4.3,2.5,8.1c0,4.3-0.8,7.1-2.5,8.6
					C274.4,23.3,271.3,24.1,266.8,24.1z M277.1,109.2c0,1.2-0.7,2-2,2.5c-1.6,0.5-4.3,0.8-8.1,0.8c-3.8,0-6.4-0.3-8.1-0.8
					c-1.5-0.5-2.1-1.3-2.1-2.5V37.7c0-1.1,0.7-1.9,2.1-2.5c1.6-0.7,4.3-1,8.1-1c3.8,0,6.4,0.3,8.1,1c1.3,0.5,2,1.3,2,2.5V109.2z"/>
				<path class="st0" d="M308.2,109.2c0,1.2-0.7,2-2.1,2.5c-1.6,0.5-4.3,0.8-7.9,0.8c-3.8,0-6.4-0.3-8.1-0.8
					c-1.5-0.5-2.1-1.3-2.1-2.5V3.5c0-1.1,0.6-2,2.1-2.5c1.5-0.6,4.1-1,8.1-1c3.8,0,6.4,0.4,7.9,1c1.5,0.5,2.1,1.3,2.1,2.5V109.2z"/>
				<path class="st0" d="M388.3,71.4c0,4.8-2.1,7.2-6.3,7.2h-43.7c0,6.4,1.5,11.2,4.6,14.7c3.1,3.5,8.2,5.2,15,5.2
					c3.1,0,6.3-0.1,9.4-0.6c2.5-0.5,4.5-1,6.9-1.8c0.8-0.2,1.5-0.3,2.6-0.8l2.1-0.7c1.6-0.5,2.6-0.8,3.1-0.8c1.8,0,2.6,2.2,2.6,6.6
					c0,4.1-0.5,6.8-1.6,7.9c-0.8,1-3.6,2.1-8.7,3.5l-8.4,1.5c-3.3,0.5-6.6,0.6-9.9,0.6c-25.5,0-38.4-13.1-38.4-39.6
					c0-12.7,3.3-22.9,9.7-30.3c6.4-7.4,15.3-11.1,26.9-11.1c11.5,0,20.1,3.3,25.9,10.1c5.4,6.1,8.1,14.3,8.1,25.1V71.4z M368.5,65.6
					c0.3-12.2-4.6-18.3-14.7-18.3c-4.9,0-8.8,1.8-11.5,5.4c-2.5,3.1-3.8,7.4-4,12.8H368.5z"/>
			</g>
			<path class="st2" d="M48.3,196.3c0,0.7-0.4,1.1-1.2,1.4c-1,0.3-2.5,0.5-4.5,0.5c-2.2,0-3.7-0.2-4.6-0.5c-0.9-0.3-1.2-0.8-1.2-1.4
				v-60.6c0-0.7,0.4-1.1,1.2-1.4c0.8-0.4,2.4-0.6,4.6-0.6c2.2,0,3.7,0.2,4.5,0.6c0.8,0.3,1.2,0.8,1.2,1.4V196.3z"/>
			<path class="st2" d="M142,147.5c-2.6,0-4.5-0.5-5.3-1.3c-0.8-0.8-1.3-2.5-1.3-4.6c0-2.4,0.5-4,1.4-4.8c0.9-0.9,2.7-1.4,5.3-1.4
				c2.6,0,4.3,0.5,5.3,1.3c0.9,0.8,1.4,2.4,1.4,4.6c0,2.4-0.5,4.1-1.4,4.9C146.4,147,144.6,147.5,142,147.5z M147.9,196.3
				c0,0.7-0.4,1.1-1.1,1.4c-0.9,0.3-2.5,0.5-4.6,0.5c-2.2,0-3.7-0.2-4.6-0.5c-0.9-0.3-1.2-0.8-1.2-1.4v-41c0-0.7,0.4-1.1,1.2-1.4
				c0.9-0.4,2.5-0.5,4.6-0.5c2.2,0,3.7,0.2,4.6,0.5c0.8,0.3,1.1,0.8,1.1,1.4V196.3z"/>
			<path class="st2" d="M257.1,143.7c-0.1,0-0.3-0.1-0.6-0.2l-1-0.4c-1.1-0.3-2.2-0.5-3.2-0.5c-3.2,0-4.8,2.4-4.8,7.2v3.8h7.6
				c1.2,0,1.8,1.6,1.8,4.7c0,3.1-0.6,4.7-1.8,4.7h-7.6v33.2c0,0.7-0.4,1.1-1.1,1.4c-1,0.3-2.6,0.5-4.6,0.5c-2.2,0-3.7-0.2-4.6-0.5
				c-0.8-0.3-1.1-0.8-1.1-1.4v-33.2h-5.2c-1.1,0-1.7-1.6-1.7-4.7c0-3.1,0.6-4.7,1.8-4.7h5.1v-3.4c0-11.2,4.8-16.9,14.4-16.9
				c1.8,0,3.3,0.2,4.7,0.7c1.1,0.3,2,0.5,2.4,0.9c0.7,0.6,1,2.1,1,4.6c0,1.7-0.1,2.9-0.4,3.3C257.9,143.4,257.6,143.7,257.1,143.7z"
				/>
			<path class="st2" d="M366.9,167.7c0,2.7-1.2,4.2-3.6,4.2h-25c0,3.7,0.8,6.4,2.7,8.4c1.8,2,4.7,3,8.6,3c1.8,0,3.6-0.1,5.4-0.4
				c1.4-0.3,2.5-0.6,4-1.1c0.5-0.1,0.8-0.2,1.5-0.4l1.2-0.4c1-0.3,1.5-0.5,1.8-0.5c1,0,1.5,1.2,1.5,3.8c0,2.4-0.3,3.9-0.9,4.5
				c-0.5,0.6-2.1,1.2-5,2l-4.8,0.8c-1.9,0.3-3.8,0.4-5.7,0.4c-14.6,0-22-7.6-22-22.7c0-7.3,1.9-13.1,5.6-17.4
				c3.7-4.3,8.8-6.3,15.4-6.3c6.6,0,11.5,1.9,14.8,5.8c3.1,3.5,4.6,8.2,4.6,14.3V167.7z M355.5,164.4c0.2-7-2.6-10.5-8.4-10.5
				c-2.8,0-5,1-6.6,3.1c-1.4,1.8-2.2,4.3-2.3,7.4H355.5z"/>
		</g>
	</g>
	<g>
		<path class="st1" d="M5.5,233l-2.1,6.3H0.7l6.8-20h3.1l6.8,20h-2.8l-2.1-6.3H5.5z M12,231l-2-5.7c-0.4-1.3-0.7-2.5-1-3.7H9
			c-0.3,1.2-0.6,2.4-1,3.6L6,231H12z"/>
		<path class="st1" d="M21.7,228.8c0-1.5,0-2.7-0.1-3.9h2.3l0.1,2.4h0.1c0.7-1.3,2.4-2.7,4.7-2.7c2,0,5.1,1.2,5.1,6.1v8.5h-2.6V231
			c0-2.3-0.9-4.2-3.3-4.2c-1.7,0-3,1.2-3.5,2.7c-0.1,0.3-0.2,0.8-0.2,1.2v8.6h-2.6V228.8z"/>
		<path class="st1" d="M42.7,221.5v3.5h3.7v2h-3.7v7.8c0,1.8,0.5,2.8,2,2.8c0.7,0,1.1-0.1,1.5-0.2l0.1,2c-0.5,0.2-1.3,0.4-2.3,0.4
			c-1.2,0-2.2-0.4-2.8-1.1c-0.7-0.8-1-2.1-1-3.8v-7.8h-2.2v-2h2.2v-2.7L42.7,221.5z"/>
		<path class="st1" d="M53.7,220.9c0,0.9-0.6,1.6-1.7,1.6c-0.9,0-1.6-0.7-1.6-1.6c0-0.9,0.7-1.6,1.6-1.6
			C53.1,219.3,53.7,220,53.7,220.9z M50.8,239.3V225h2.6v14.4H50.8z"/>
		<path class="st1" d="M65.3,230.4v1.9H58v-1.9H65.3z"/>
		<path class="st1" d="M86.8,230.5c-0.1-2.8-0.3-6.2-0.3-8.6h-0.1c-0.7,2.3-1.5,4.8-2.5,7.6l-3.5,9.7h-2l-3.3-9.5
			c-0.9-2.8-1.7-5.4-2.3-7.8h-0.1c-0.1,2.5-0.2,5.8-0.4,8.8l-0.5,8.6h-2.5l1.4-20h3.3l3.4,9.7c0.8,2.5,1.5,4.7,2,6.7h0.1
			c0.5-2,1.2-4.2,2.1-6.7l3.6-9.7h3.3l1.2,20h-2.6L86.8,230.5z"/>
		<path class="st1" d="M98.4,220.9c0,0.9-0.6,1.6-1.7,1.6c-0.9,0-1.6-0.7-1.6-1.6c0-0.9,0.7-1.6,1.6-1.6
			C97.8,219.3,98.4,220,98.4,220.9z M95.5,239.3V225h2.6v14.4H95.5z"/>
		<path class="st1" d="M114.2,238.8c-0.7,0.3-2.2,0.8-4.1,0.8c-4.3,0-7.1-3-7.1-7.3c0-4.4,3-7.7,7.7-7.7c1.5,0,2.9,0.4,3.6,0.8
			l-0.6,2c-0.6-0.3-1.6-0.7-3-0.7c-3.3,0-5.1,2.5-5.1,5.4c0,3.3,2.1,5.4,5,5.4c1.5,0,2.5-0.3,3.2-0.7L114.2,238.8z"/>
		<path class="st1" d="M118.7,229.4c0-1.7,0-3.1-0.1-4.5h2.3l0.1,2.8h0.1c0.7-1.9,2.3-3.1,4-3.1c0.3,0,0.5,0,0.7,0.1v2.4
			c-0.3,0-0.5,0-0.9,0c-1.8,0-3.1,1.4-3.5,3.3c-0.1,0.4-0.1,0.8-0.1,1.2v7.7h-2.6V229.4z"/>
		<path class="st1" d="M142.6,232c0,5.3-3.7,7.6-7.1,7.6c-3.9,0-6.9-2.9-6.9-7.4c0-4.8,3.2-7.6,7.1-7.6
			C139.8,224.7,142.6,227.7,142.6,232z M131.2,232.2c0,3.2,1.8,5.5,4.3,5.5c2.5,0,4.4-2.4,4.4-5.6c0-2.4-1.2-5.5-4.3-5.5
			C132.6,226.6,131.2,229.5,131.2,232.2z"/>
		<path class="st1" d="M147.4,218.2h2.6v9h0.1c0.9-1.6,2.6-2.6,4.9-2.6c3.6,0,6.1,3,6.1,7.3c0,5.1-3.3,7.7-6.5,7.7
			c-2.1,0-3.7-0.8-4.8-2.7h-0.1l-0.1,2.4h-2.2c0.1-1,0.1-2.4,0.1-3.7V218.2z M150,233.6c0,0.3,0,0.7,0.1,0.9c0.5,1.8,2,3.1,3.9,3.1
			c2.8,0,4.4-2.2,4.4-5.5c0-2.9-1.5-5.3-4.3-5.3c-1.8,0-3.4,1.3-3.9,3.2c-0.1,0.3-0.1,0.7-0.1,1.1V233.6z"/>
		<path class="st1" d="M168.7,220.9c0,0.9-0.6,1.6-1.7,1.6c-0.9,0-1.6-0.7-1.6-1.6c0-0.9,0.7-1.6,1.6-1.6
			C168,219.3,168.7,220,168.7,220.9z M165.8,239.3V225h2.6v14.4H165.8z"/>
		<path class="st1" d="M184.3,235.9c0,1.3,0.1,2.5,0.2,3.5h-2.3l-0.2-1.8h-0.1c-0.8,1.1-2.3,2.1-4.4,2.1c-2.9,0-4.4-2.1-4.4-4.1
			c0-3.5,3.1-5.4,8.6-5.3v-0.3c0-1.2-0.3-3.3-3.3-3.3c-1.4,0-2.8,0.4-3.8,1.1l-0.6-1.8c1.2-0.7,2.9-1.2,4.7-1.2c4.4,0,5.5,3,5.5,5.8
			V235.9z M181.7,232c-2.8-0.1-6.1,0.4-6.1,3.2c0,1.7,1.1,2.5,2.4,2.5c1.9,0,3.1-1.2,3.5-2.4c0.1-0.3,0.1-0.6,0.1-0.8V232z"/>
		<path class="st1" d="M190,218.2h2.6v21.1H190V218.2z"/>
		<path class="st1" d="M206.3,239.3v-20h2.8l6.4,10.1c1.5,2.4,2.6,4.5,3.6,6.5l0.1,0c-0.2-2.7-0.3-5.1-0.3-8.2v-8.4h2.4v20h-2.6
			l-6.3-10.2c-1.4-2.2-2.7-4.5-3.7-6.7l-0.1,0c0.1,2.5,0.2,4.9,0.2,8.2v8.5H206.3z"/>
		<path class="st1" d="M237.3,235.9c0,1.3,0.1,2.5,0.2,3.5h-2.3l-0.2-1.8h-0.1c-0.8,1.1-2.3,2.1-4.4,2.1c-2.9,0-4.4-2.1-4.4-4.1
			c0-3.5,3.1-5.4,8.6-5.3v-0.3c0-1.2-0.3-3.3-3.3-3.3c-1.4,0-2.8,0.4-3.8,1.1l-0.6-1.8c1.2-0.7,2.9-1.2,4.7-1.2c4.4,0,5.5,3,5.5,5.8
			V235.9z M234.8,232c-2.9-0.1-6.1,0.4-6.1,3.2c0,1.7,1.1,2.5,2.4,2.5c1.9,0,3.1-1.2,3.5-2.4c0.1-0.3,0.1-0.6,0.1-0.8V232z"/>
		<path class="st1" d="M243,228.8c0-1.5,0-2.7-0.1-3.9h2.3l0.1,2.4h0.1c0.7-1.3,2.4-2.7,4.7-2.7c2,0,5.1,1.2,5.1,6.1v8.5h-2.6V231
			c0-2.3-0.9-4.2-3.3-4.2c-1.7,0-3,1.2-3.5,2.7c-0.1,0.3-0.2,0.8-0.2,1.2v8.6H243V228.8z"/>
		<path class="st1" d="M273.9,232c0,5.3-3.7,7.6-7.1,7.6c-3.9,0-6.9-2.9-6.9-7.4c0-4.8,3.2-7.6,7.1-7.6
			C271.2,224.7,273.9,227.7,273.9,232z M262.6,232.2c0,3.2,1.8,5.5,4.3,5.5c2.5,0,4.4-2.4,4.4-5.6c0-2.4-1.2-5.5-4.3-5.5
			C263.9,226.6,262.6,229.5,262.6,232.2z"/>
		<path class="st1" d="M300.5,238.7c-0.9,0.5-2.8,1-5.3,1c-5.6,0-9.8-3.6-9.8-10.2c0-6.3,4.2-10.5,10.4-10.5c2.5,0,4.1,0.5,4.8,0.9
			l-0.7,2.1c-0.9-0.5-2.3-0.8-4-0.8c-4.7,0-7.8,3-7.8,8.2c0,4.9,2.8,8,7.6,8c1.6,0,3.2-0.3,4.2-0.8L300.5,238.7z"/>
		<path class="st1" d="M317.8,232c0,5.3-3.7,7.6-7.1,7.6c-3.9,0-6.9-2.9-6.9-7.4c0-4.8,3.2-7.6,7.1-7.6
			C315.1,224.7,317.8,227.7,317.8,232z M306.5,232.2c0,3.2,1.8,5.5,4.3,5.5c2.5,0,4.4-2.4,4.4-5.6c0-2.4-1.2-5.5-4.3-5.5
			C307.8,226.6,306.5,229.5,306.5,232.2z"/>
		<path class="st1" d="M332.7,235.9c0,1.3,0.1,2.5,0.2,3.5h-2.3l-0.2-1.8h-0.1c-0.8,1.1-2.3,2.1-4.4,2.1c-2.9,0-4.4-2.1-4.4-4.1
			c0-3.5,3.1-5.4,8.6-5.3v-0.3c0-1.2-0.3-3.3-3.3-3.3c-1.4,0-2.8,0.4-3.8,1.1l-0.6-1.8c1.2-0.7,2.9-1.2,4.7-1.2c4.4,0,5.5,3,5.5,5.8
			V235.9z M330.2,232c-2.8-0.1-6.1,0.4-6.1,3.2c0,1.7,1.1,2.5,2.4,2.5c1.9,0,3.1-1.2,3.5-2.4c0.1-0.3,0.1-0.6,0.1-0.8V232z"/>
		<path class="st1" d="M341.4,221.5v3.5h3.7v2h-3.7v7.8c0,1.8,0.5,2.8,2,2.8c0.7,0,1.1-0.1,1.5-0.2l0.1,2c-0.5,0.2-1.3,0.4-2.3,0.4
			c-1.2,0-2.2-0.4-2.8-1.1c-0.7-0.8-1-2.1-1-3.8v-7.8h-2.2v-2h2.2v-2.7L341.4,221.5z"/>
		<path class="st1" d="M352.5,220.9c0,0.9-0.6,1.6-1.7,1.6c-0.9,0-1.6-0.7-1.6-1.6c0-0.9,0.7-1.6,1.6-1.6
			C351.8,219.3,352.5,220,352.5,220.9z M349.6,239.3V225h2.6v14.4H349.6z"/>
		<path class="st1" d="M358,228.8c0-1.5,0-2.7-0.1-3.9h2.3l0.1,2.4h0.1c0.7-1.3,2.4-2.7,4.7-2.7c2,0,5.1,1.2,5.1,6.1v8.5h-2.6V231
			c0-2.3-0.9-4.2-3.3-4.2c-1.7,0-3,1.2-3.5,2.7c-0.1,0.3-0.2,0.8-0.2,1.2v8.6H358V228.8z"/>
		<path class="st1" d="M388.2,237.2c0,3.3-0.7,5.3-2,6.6c-1.4,1.3-3.4,1.7-5.2,1.7c-1.7,0-3.6-0.4-4.8-1.2l0.7-2
			c0.9,0.6,2.4,1.1,4.2,1.1c2.7,0,4.6-1.4,4.6-5v-1.6h-0.1c-0.8,1.3-2.3,2.4-4.6,2.4c-3.6,0-6.1-3-6.1-7c0-4.9,3.2-7.6,6.5-7.6
			c2.5,0,3.8,1.3,4.5,2.5h0.1l0.1-2.2h2.3c-0.1,1-0.1,2.2-0.1,3.9V237.2z M385.6,230.6c0-0.5,0-0.8-0.1-1.2
			c-0.5-1.5-1.7-2.8-3.7-2.8c-2.5,0-4.3,2.1-4.3,5.4c0,2.8,1.5,5.2,4.2,5.2c1.6,0,3.1-1,3.6-2.7c0.1-0.4,0.2-0.9,0.2-1.4V230.6z"/>
	</g>
</g>
</svg>
